<?xml version="1.0" encoding="UTF-8" standalone="no"?><svg xmlns="http://www.w3.org/2000/svg" xmlns:xlink="http://www.w3.org/1999/xlink" fill="none" height="440.2" preserveAspectRatio="xMidYMid meet" style="fill: none" version="1" viewBox="-4.7 0.0 925.5 440.2" width="925.5" zoomAndPan="magnify"><g id="change1_1"><path clip-rule="evenodd" d="M396.771 12.8967C389.151 29.3106 399.116 164.139 410.839 200.484C426.079 245.622 454.801 264.967 474.73 242.691C485.281 230.967 485.281 213.967 476.489 187.001C472.386 175.863 466.524 143.036 463.593 114.897C453.042 20.5174 444.836 0 417.286 0C406.149 0.586211 400.874 4.10355 396.771 12.8967Z" fill="#e7d655" fill-rule="evenodd"/></g><g id="change1_2"><path clip-rule="evenodd" d="M672.852 31.6553C662.887 39.8623 613.063 144.208 601.926 181.139C590.789 218.657 591.375 243.277 603.685 254.415C611.891 262.036 616.58 263.209 627.717 259.105C640.026 255.002 645.888 243.278 677.54 164.139C697.47 114.311 713.883 66.8279 713.883 57.4486C714.469 30.4829 692.195 17 672.852 31.6553Z" fill="#e7d655" fill-rule="evenodd"/></g><g id="change1_3"><path clip-rule="evenodd" d="M132.999 133.656C118.345 148.311 120.104 160.622 138.275 181.139C204.511 256.76 238.508 290.174 263.713 306.588C296.538 328.278 307.675 330.623 319.398 318.899C333.466 305.416 328.19 292.519 293.607 255.002C274.264 235.071 243.784 200.484 225.027 178.794C191.616 140.691 166.411 120.759 152.343 120.759C148.826 120.759 140.033 126.622 132.999 133.656Z" fill="#e7d655" fill-rule="evenodd"/></g><g id="change1_4"><path clip-rule="evenodd" d="M846.355 167.07C785.394 240.346 756.086 281.381 752.569 296.037C749.052 313.623 757.258 331.795 768.981 332.382C785.98 334.14 793.014 330.623 809.426 315.381C833.459 292.519 899.695 201.07 911.418 173.518C920.797 151.829 920.797 149.484 913.763 137.76C898.523 115.484 884.455 121.932 846.355 167.07Z" fill="#e7d655" fill-rule="evenodd"/></g><g id="change1_5"><path clip-rule="evenodd" d="M6.38918 358.175C-4.74784 369.313 -0.644296 395.692 13.4235 406.83C38.0422 426.175 89.6237 439.658 141.206 440.245H188.684V423.244C188.684 407.417 186.34 404.486 165.825 394.52C142.965 383.382 36.8694 352.313 21.0431 352.313C16.3539 352.313 9.90613 354.658 6.38918 358.175Z" fill="#e7d655" fill-rule="evenodd"/></g></svg>