<?xml version="1.0" encoding="UTF-8" standalone="no"?><svg xmlns="http://www.w3.org/2000/svg" xmlns:xlink="http://www.w3.org/1999/xlink" fill="#e7d655" height="125.2" preserveAspectRatio="xMidYMid meet" version="1" viewBox="0.0 0.0 205.2 125.2" width="205.2" zoomAndPan="magnify"><g id="change1_1"><path d="M0.5,15.7v-5.2c0-5.5,4.5-10,10-10h184.2c5.5,0,10,4.5,10,10v4.2L0.5,15.7z" fill="#e7d655"/></g><g id="change2_1"><path d="M194.7,0H10.5C4.7,0,0,4.7,0,10.5v104.2c0,5.8,4.7,10.5,10.5,10.5h184.2c5.8,0,10.5-4.7,10.5-10.5V10.5 C205.2,4.7,200.5,0,194.7,0z M10.5,1h184.2c5.2,0,9.5,4.3,9.5,9.5v4.2H1v-4.2C1,5.3,5.3,1,10.5,1z M194.7,124.2H10.5 c-5.2,0-9.5-4.3-9.5-9.5v-99h203.2v99C204.2,120,200,124.2,194.7,124.2z" fill="inherit"/></g><g id="change3_1"><path d="M194.7,124.7H10.5c-5.5,0-10-4.5-10-10V15.2h204.2v99.5C204.7,120.3,200.3,124.7,194.7,124.7z" fill="#e7d655"/></g><g id="change2_2"><path d="M194.7,0H10.5C4.7,0,0,4.7,0,10.5v104.2c0,5.8,4.7,10.5,10.5,10.5h184.2c5.8,0,10.5-4.7,10.5-10.5V10.5 C205.2,4.7,200.5,0,194.7,0z M10.5,1h184.2c5.2,0,9.5,4.3,9.5,9.5v4.2H1v-4.2C1,5.3,5.3,1,10.5,1z M194.7,124.2H10.5 c-5.2,0-9.5-4.3-9.5-9.5v-99h203.2v99C204.2,120,200,124.2,194.7,124.2z" fill="inherit"/></g><g id="change4_1"><path d="M12.2,5.8h5v5h-5V5.8z M22.9,5.8c-1.4,0-2.5,1.1-2.5,2.5s1.1,2.5,2.5,2.5s2.5-1.1,2.5-2.5 C25.4,6.9,24.3,5.8,22.9,5.8z M30.8,5.8l-2.5,5h5L30.8,5.8z" fill="#e7d655"/></g></svg>